REM DIRINDEX 1\2,1\3,1\4,1\5
REM DIRNAME "folder01","folder02","folder03","folder04","folder05"
TITLE ""
FILE "1Q_t_1649-1658.mp3" MP3
  TRACK 01 AUDIO
    TITLE "3:cjc172_5937"
    INDEX 01 00:00:00
  TRACK 02 AUDIO
    TITLE "0:"
    INDEX 01 00:01:04
  TRACK 03 AUDIO
    TITLE "4:cjc172_5938"
    INDEX 01 00:01:14
  TRACK 04 AUDIO
    TITLE "0:"
    INDEX 01 00:03:07
  TRACK 05 AUDIO
    TITLE "5:cjc172_5939"
    INDEX 01 00:03:16
  TRACK 06 AUDIO
    TITLE "0:"
    INDEX 01 00:07:06
  TRACK 07 AUDIO
    TITLE "3:cjc172_5940"
    INDEX 01 00:07:55
  TRACK 08 AUDIO
    TITLE "0:"
    INDEX 01 00:08:65
  TRACK 09 AUDIO
    TITLE "4:cjc172_5941"
    INDEX 01 00:08:74
  TRACK 10 AUDIO
    TITLE "0:"
    INDEX 01 00:10:60
  TRACK 11 AUDIO
    TITLE "5:cjc172_5942"
    INDEX 01 00:10:69
  TRACK 12 AUDIO
    TITLE "0:"
    INDEX 01 00:16:50
  TRACK 13 AUDIO
    TITLE "3:cjc172_5943"
    INDEX 01 00:17:24
  TRACK 14 AUDIO
    TITLE "0:"
    INDEX 01 00:18:32
  TRACK 15 AUDIO
    TITLE "4:cjc172_5944"
    INDEX 01 00:18:38
  TRACK 16 AUDIO
    TITLE "0:"
    INDEX 01 00:20:74
  TRACK 17 AUDIO
    TITLE "5:cjc172_5945"
    INDEX 01 00:21:05
  TRACK 18 AUDIO
    TITLE "0:"
    INDEX 01 00:24:58
  TRACK 19 AUDIO
    TITLE "3:cjc172_5946"
    INDEX 01 00:25:30
  TRACK 20 AUDIO
    TITLE "0:"
    INDEX 01 00:26:49
  TRACK 21 AUDIO
    TITLE "4:cjc172_5947"
    INDEX 01 00:26:57
  TRACK 22 AUDIO
    TITLE "0:"
    INDEX 01 00:27:66
  TRACK 23 AUDIO
    TITLE "5:cjc172_5948"
    INDEX 01 00:27:74
  TRACK 24 AUDIO
    TITLE "0:"
    INDEX 01 00:34:05
  TRACK 25 AUDIO
    TITLE "3:cjc172_5949"
    INDEX 01 00:34:52
  TRACK 26 AUDIO
    TITLE "0:"
    INDEX 01 00:35:52
  TRACK 27 AUDIO
    TITLE "4:cjc172_5950"
    INDEX 01 00:35:64
  TRACK 28 AUDIO
    TITLE "0:"
    INDEX 01 00:38:30
  TRACK 29 AUDIO
    TITLE "5:cjc172_5951"
    INDEX 01 00:38:38
  TRACK 30 AUDIO
    TITLE "0:"
    INDEX 01 00:42:71
  TRACK 31 AUDIO
    TITLE "3:cjc172_5952"
    INDEX 01 00:43:43
  TRACK 32 AUDIO
    TITLE "0:"
    INDEX 01 00:44:60
  TRACK 33 AUDIO
    TITLE "4:cjc172_5953"
    INDEX 01 00:44:70
  TRACK 34 AUDIO
    TITLE "0:"
    INDEX 01 00:45:72
  TRACK 35 AUDIO
    TITLE "5:cjc172_5954"
    INDEX 01 00:46:06
  TRACK 36 AUDIO
    TITLE "0:"
    INDEX 01 00:51:72
  TRACK 37 AUDIO
    TITLE "3:cjc172_5955"
    INDEX 01 00:52:44
  TRACK 38 AUDIO
    TITLE "0:"
    INDEX 01 00:53:63
  TRACK 39 AUDIO
    TITLE "4:cjc172_5956"
    INDEX 01 00:53:73
  TRACK 40 AUDIO
    TITLE "0:"
    INDEX 01 00:55:09
  TRACK 41 AUDIO
    TITLE "5:cjc172_5957"
    INDEX 01 00:55:17
  TRACK 42 AUDIO
    TITLE "0:"
    INDEX 01 00:59:62
  TRACK 43 AUDIO
    TITLE "3:cjc172_5958"
    INDEX 01 01:00:36
  TRACK 44 AUDIO
    TITLE "0:"
    INDEX 01 01:01:43
  TRACK 45 AUDIO
    TITLE "4:cjc172_5959"
    INDEX 01 01:01:53
  TRACK 46 AUDIO
    TITLE "0:"
    INDEX 01 01:03:58
  TRACK 47 AUDIO
    TITLE "5:cjc172_5960"
    INDEX 01 01:03:68
  TRACK 48 AUDIO
    TITLE "0:"
    INDEX 01 01:11:52
  TRACK 49 AUDIO
    TITLE "3:cjc172_5961"
    INDEX 01 01:12:22
  TRACK 50 AUDIO
    TITLE "0:"
    INDEX 01 01:13:27
  TRACK 51 AUDIO
    TITLE "4:cjc172_5962"
    INDEX 01 01:13:37
  TRACK 52 AUDIO
    TITLE "0:"
    INDEX 01 01:15:45
  TRACK 53 AUDIO
    TITLE "5:cjc172_5963"
    INDEX 01 01:15:53
  TRACK 54 AUDIO
    TITLE "0:"
    INDEX 01 01:20:05
  TRACK 55 AUDIO
    TITLE "3:cjc172_5964"
    INDEX 01 01:20:52
  TRACK 56 AUDIO
    TITLE "0:"
    INDEX 01 01:22:18
  TRACK 57 AUDIO
    TITLE "4:cjc172_5965"
    INDEX 01 01:22:28
  TRACK 58 AUDIO
    TITLE "0:"
    INDEX 01 01:25:07
  TRACK 59 AUDIO
    TITLE "5:cjc172_5966"
    INDEX 01 01:25:14
  TRACK 60 AUDIO
    TITLE "0:"
    INDEX 01 01:29:34
